<svg width="28" height="39" viewBox="0 0 28 39" fill="none" xmlns="http://www.w3.org/2000/svg">
<path d="M3.51746 18.4977C5.1253 17.647 6.8154 17.0039 8.57842 16.5533C8.75977 16.5066 8.94487 16.4056 9.15052 16.4654C8.9673 17.2918 8.64573 18.0396 8.19703 18.7314C7.54641 19.7372 6.95936 20.7786 6.46579 21.8704C5.98718 22.923 5.58148 23.9999 5.29917 25.1235C5.34778 25.1366 5.37209 25.1478 5.39639 25.1478C11.1641 25.1478 16.9317 25.1478 22.6994 25.1553C22.9462 25.1553 22.9518 25.0487 22.9499 24.8617C22.9443 22.0349 22.9742 19.2081 22.9331 16.3813C22.892 13.6685 22.5162 11.0006 21.4973 8.46361C19.7324 4.06448 16.6083 1.21897 11.9212 0.185089C11.609 0.117784 11.2818 0.13648 10.9846 0H9.31691C9.31691 1.43958 9.30756 2.87729 9.31878 4.31687C9.32065 4.56553 9.25334 4.62909 9.00656 4.62722C7.77076 4.61413 6.5331 4.62161 5.2973 4.62161C4.76821 4.62161 4.74391 4.62161 4.77195 5.15444C4.89721 7.52508 3.85398 9.32736 2.07414 10.7856C1.50391 11.2512 0.879475 11.6269 0.212033 11.9261C-0.0347521 12.0383 -0.0441 12.1355 0.0718143 12.3636C1.08326 14.3621 2.0891 16.3645 3.07811 18.3743C3.20524 18.636 3.30432 18.6117 3.51746 18.4977ZM10.3882 9.24136C10.5751 9.44888 10.4256 9.95741 10.4256 10.3332C10.4181 10.694 10.6051 11.1745 10.377 11.3802C10.1788 11.5596 9.70578 11.4437 9.35617 11.4362C8.96916 11.4269 8.45316 11.6008 8.23442 11.3633C8.04559 11.1558 8.17086 10.6473 8.1802 10.2715C8.18768 9.91067 8.02129 9.43019 8.24751 9.22453C8.44381 9.04692 8.91682 9.16096 9.2683 9.17031C9.65343 9.17779 10.1694 9.00205 10.3882 9.24136Z" fill="#0E2A54"/>
<path d="M27.5001 34.5372C27.5019 34.2736 27.4122 34.2343 27.1804 34.2343C18.2924 34.2399 9.40623 34.2399 0.520092 34.2324C0.262089 34.2324 0.215351 34.3128 0.21722 34.5503C0.228438 35.8365 0.235915 37.1247 0.21348 38.4109C0.207872 38.74 0.30696 38.7923 0.607963 38.7923C5.02766 38.7811 9.44549 38.7849 13.8633 38.7849C18.2811 38.7849 22.699 38.783 27.1168 38.7886C27.3842 38.7905 27.5075 38.7624 27.5019 38.4371C27.4795 37.1378 27.4851 35.8365 27.5001 34.5372Z" fill="#0E2A54"/>
<path d="M22.5439 27.4138C16.7893 27.425 11.0366 27.425 5.28198 27.4138C4.95107 27.4138 4.81084 27.4886 4.82206 27.8345C4.83141 28.1093 4.77719 28.386 4.7641 28.6627C4.69119 30.3042 3.53766 31.626 1.8999 31.942H25.8119C24.2246 31.54 23.2655 30.6164 22.9907 29.0628C22.9196 28.6571 22.9271 28.2308 22.957 27.8176C22.9813 27.4718 22.8654 27.4138 22.5439 27.4138Z" fill="#0E2A54"/>
</svg>
