<svg width="47" height="47" viewBox="0 0 47 47" fill="none" xmlns="http://www.w3.org/2000/svg">
<path d="M14.5291 38.4478C12.5512 37.2759 10.8669 35.7768 9.48509 33.9411C7.29726 31.0376 6.14578 27.7592 5.97192 24.1332C5.94483 23.6094 6.13223 23.4242 6.66959 23.4197C7.12567 23.4152 7.58401 23.413 8.04009 23.422C8.32683 23.4265 8.59551 23.4062 8.73549 23.1014C8.87548 22.7898 8.69034 22.5843 8.49165 22.3834C7.29501 21.189 6.10062 19.9901 4.90398 18.7957C4.49983 18.3938 4.28082 18.4006 3.86764 18.8138C2.57617 20.103 1.28921 21.3945 0 22.6859V23.054C0.158047 23.3362 0.397376 23.4378 0.720244 23.4242C1.19213 23.4039 1.66627 23.4152 2.13815 23.4197C2.65519 23.4242 2.82001 23.5845 2.83807 24.0948C2.88549 25.4834 3.05257 26.8584 3.39124 28.2063C4.82721 33.8892 8.07847 38.222 13.1021 41.2316C13.5672 41.5094 13.8088 41.4349 14.0662 40.9607C14.3281 40.4821 14.581 39.9966 14.8361 39.5134C15.1319 38.9535 15.0845 38.7774 14.5291 38.4478Z" fill="#0E2A54"/>
<path d="M40.9339 32.755C40.4666 32.5021 39.9947 32.2537 39.5251 32.0054C38.9538 31.7051 38.7822 31.748 38.4571 32.2989C37.4027 34.0713 36.0819 35.6134 34.4856 36.9184C31.4759 39.3772 28.017 40.6709 24.1403 40.865C23.612 40.8921 23.4223 40.707 23.4178 40.1742C23.4155 39.7023 23.4133 39.2281 23.42 38.7563C23.4246 38.4808 23.3884 38.2347 23.1062 38.1037C22.7969 37.9592 22.5892 38.1354 22.386 38.3386C21.1826 39.5465 19.9724 40.7522 18.7689 41.9624C18.4032 42.3304 18.4054 42.5562 18.778 42.931C20.0785 44.2337 21.3835 45.5342 22.6863 46.837H23.052C23.3455 46.6699 23.4404 46.4215 23.4246 46.0896C23.402 45.6313 23.4155 45.1752 23.4178 44.7169C23.4223 44.1705 23.5736 44.017 24.1177 43.9967C26.9219 43.8951 29.5997 43.2674 32.1352 42.0685C36.0164 40.2283 39.0396 37.4422 41.2252 33.7462C41.5074 33.2652 41.4352 33.0259 40.9339 32.755Z" fill="#0E2A54"/>
<path d="M33.129 23.4282C33.1335 18.0546 28.7759 13.697 23.4046 13.7061C18.0513 13.7151 13.7163 18.0524 13.7095 23.4079C13.7005 28.777 18.0603 33.1368 23.4316 33.1301C28.7849 33.121 33.1245 28.7815 33.129 23.4282ZM21.9347 26.465C20.7697 25.3022 19.6069 24.1372 18.4419 22.9767C18.18 22.7148 18.0693 22.419 18.2183 22.0668C18.3425 21.771 18.5931 21.64 18.8844 21.6084C19.1802 21.622 19.3789 21.7732 19.5663 21.9629C20.492 22.8931 21.429 23.8075 22.3411 24.7491C22.5692 24.9861 22.6843 24.9568 22.9011 24.7355C24.3438 23.2702 25.8046 21.8229 27.2541 20.3621C27.507 20.107 27.7779 19.9422 28.146 20.0392C28.7172 20.1883 28.8617 20.8837 28.4034 21.3533C27.5273 22.2451 26.6377 23.1212 25.7549 24.004C24.9353 24.8236 24.1203 25.6454 23.2984 26.4605C22.7904 26.9662 22.4359 26.964 21.9347 26.465Z" fill="#0E2A54"/>
<path d="M5.88647 14.0694C6.36739 14.329 6.85282 14.5842 7.33599 14.8393C7.88013 15.126 8.0585 15.0764 8.37233 14.5548C10.6234 10.8272 13.7979 8.24195 17.9297 6.84211C19.483 6.31604 21.0838 6.04736 22.7185 5.96833C23.2197 5.9435 23.4094 6.13315 23.4184 6.63438C23.4229 6.87823 23.4184 7.12208 23.4184 7.36592C23.4184 7.62557 23.4252 7.88522 23.4184 8.14261C23.4094 8.41129 23.4884 8.62578 23.7458 8.73867C24.0122 8.85608 24.2154 8.7319 24.3983 8.54902C25.6379 7.30947 26.8751 6.06993 28.1147 4.83039C28.4059 4.53913 28.4059 4.24562 28.1147 3.95436C26.8774 2.71482 25.6379 1.47753 24.3983 0.237993C24.2154 0.0573674 24.0167 -0.0735874 23.7458 0.0460769C23.4884 0.161226 23.4139 0.375722 23.4162 0.642144C23.4252 1.14564 23.4229 1.64687 23.4184 2.15036C23.4139 2.64257 23.2513 2.82094 22.7749 2.83674C20.6142 2.90448 18.5099 3.2883 16.4824 4.03338C11.7749 5.76287 8.15107 8.79738 5.59973 13.1143C5.32654 13.5749 5.40104 13.8052 5.88647 14.0694Z" fill="#0E2A54"/>
<path d="M46.7874 23.742C46.6791 23.505 46.4872 23.4169 46.2343 23.4169C45.7308 23.4214 45.2296 23.4214 44.7261 23.4169C44.1774 23.4146 44.0171 23.2634 43.999 22.7237C43.9245 20.6737 43.5791 18.6687 42.8927 16.7338C41.1993 11.9449 38.1694 8.24211 33.796 5.64788C33.2405 5.31824 33.0441 5.37243 32.7438 5.93237C32.5068 6.37264 32.2697 6.81517 32.0349 7.2577C31.6939 7.90118 31.7323 8.03891 32.3645 8.42048C35.1823 10.1206 37.3633 12.4236 38.8986 15.3362C40.1088 17.6346 40.7387 20.0889 40.8674 22.6763C40.8945 23.2295 40.7117 23.4146 40.1517 23.4169C39.9237 23.4192 39.6934 23.4192 39.4653 23.4192C39.1921 23.4192 38.9167 23.4214 38.6435 23.4192C38.3884 23.4146 38.1964 23.514 38.0948 23.7511C37.9887 23.9949 38.0881 24.1936 38.2619 24.3674C39.5105 25.6183 40.7591 26.8691 42.0099 28.1177C42.2808 28.3909 42.5744 28.418 42.8521 28.1425C44.1142 26.8849 45.3741 25.6228 46.6317 24.3607C46.8033 24.1891 46.9003 23.9881 46.7874 23.742Z" fill="#0E2A54"/>
</svg>
