<svg width="32" height="32" viewBox="0 0 32 32" fill="none" xmlns="http://www.w3.org/2000/svg">
<path d="M31.164 14.9232C31.164 12.8904 31.1658 10.8559 31.1622 8.82136C31.1604 8.37224 31.1514 7.92313 31.0901 7.47402C30.5165 3.25162 27.0174 0.0735549 22.7643 0.0248557C18.4914 -0.0238434 14.2149 0.0140341 9.94022 0.0140341C9.37747 0.0140341 8.82374 0.0843784 8.27723 0.212439C4.28751 1.13772 1.56577 4.55207 1.55134 8.65181C1.54593 10.1128 1.58561 11.5756 1.53691 13.0347C1.50625 13.9835 2.16459 14.8438 3.32796 14.8204C5.54467 14.7771 7.76139 14.8077 9.9781 14.8077C10.7609 14.8077 11.5274 14.9214 12.2669 15.1919C14.7506 16.1028 16.3523 18.4151 16.3631 21.1368C16.3739 23.2796 16.4172 25.426 16.3487 27.5669C16.3 29.0712 17.1206 29.7043 18.4067 29.6393C19.6818 29.5744 20.9643 29.6213 22.2431 29.6267C22.9736 29.6303 23.7022 29.5996 24.4255 29.4806C27.0011 29.0585 29.0303 27.8393 30.2315 25.4458C30.8628 24.185 31.1406 22.8305 31.1514 21.4272C31.1676 19.2592 31.155 17.0912 31.155 14.9232H31.164ZM26.1119 12.3385C26.1119 13.0906 25.6376 13.6173 24.9666 13.6245C24.2758 13.6318 23.778 13.0997 23.7762 12.3367C23.7726 11.2671 23.7744 10.1976 23.7744 9.06305C22.2936 10.5385 20.8633 11.9634 19.4329 13.3883C18.9586 13.8608 18.4914 14.3406 18.0135 14.8095C17.4976 15.3146 16.7924 15.3326 16.318 14.8619C15.849 14.3929 15.8599 13.6696 16.3613 13.1646C18.1704 11.3393 19.9831 9.51758 21.7957 7.69587C21.8877 7.60388 21.9761 7.50828 22.0735 7.40547C21.94 7.31349 21.8174 7.35678 21.7038 7.35678C20.7045 7.35137 19.7053 7.36039 18.7079 7.35137C18.0495 7.34415 17.577 6.90225 17.5409 6.2872C17.5012 5.62345 17.9251 5.11481 18.5942 5.02824C18.7024 5.01381 18.8125 5.01561 18.9225 5.01561C20.847 5.01381 22.7715 5.01381 24.6943 5.01561C25.6448 5.01561 26.1119 5.47555 26.1119 6.41887C26.1155 8.39208 26.1155 10.3653 26.1119 12.3385Z" fill="#0E2A54"/>
<path d="M13.8991 20.5006C13.6736 19.1118 13.0333 18.035 11.6499 17.5246C11.1557 17.3424 10.6435 17.2396 10.1204 17.2035C8.46824 17.0881 6.81247 17.1675 5.1585 17.1494C4.53623 17.1422 3.91938 17.1855 3.30252 17.2757C1.64134 17.521 0.597018 18.4535 0.1948 20.0804C0.0757573 20.5656 0.0108253 21.0616 0.00902166 21.5612C0.00541432 23.1683 0.00180367 24.7753 0 26.3824C0 26.8315 0.0288587 27.2806 0.0901836 27.728C0.335483 29.5136 1.24634 30.5687 2.92014 30.98C3.40533 31.099 3.89954 31.164 4.40096 31.1658C5.98278 31.1712 7.5646 31.1766 9.14822 31.1766C9.60996 31.1766 10.0699 31.1495 10.5298 31.0882C12.5157 30.8231 13.6087 29.7408 13.9099 27.7514C14.0903 26.5646 13.9983 25.3706 14.0326 24.1801C14.0019 22.9536 14.0975 21.7217 13.8991 20.5006Z" fill="#0E2A54"/>
</svg>
