<svg width="38" height="38" viewBox="0 0 38 38" fill="none" xmlns="http://www.w3.org/2000/svg">
<path d="M26.6234 14.8438C20.8218 14.8527 16.1112 19.581 16.1201 25.3849C16.1268 31.1842 20.8596 35.9015 26.659 35.8926C32.4606 35.8815 37.1734 31.1531 37.1645 25.3493C37.1556 19.5455 32.4273 14.8327 26.6234 14.8438ZM31.6073 23.6939C29.9386 25.3804 28.2699 27.0647 26.6034 28.7512C26.3479 29.0089 26.0568 29.1778 25.7146 29.1733C25.3125 29.18 25.0036 29.0356 24.7481 28.78C23.7171 27.7535 22.6816 26.7269 21.6595 25.6893C21.1574 25.1782 21.1729 24.405 21.6662 23.9228C22.1417 23.454 22.8994 23.4473 23.406 23.9361C24.1015 24.6072 24.7836 25.2915 25.4569 25.9848C25.628 26.1625 25.7124 26.1448 25.8746 25.9781C27.1945 24.636 28.521 23.3006 29.8475 21.9674C30.2408 21.5719 30.7074 21.4631 31.2274 21.6719C31.7007 21.8608 32.0006 22.3541 31.9806 22.8718C31.9695 23.1962 31.8318 23.4651 31.6073 23.6939Z" fill="#0E2A54"/>
<path d="M15.7222 32.3669C15.6489 32.2492 15.5689 32.2136 15.4356 32.2825C14.9912 32.5091 14.5668 32.4114 14.1446 32.2025C7.88975 29.0895 4.61233 24.0412 4.37013 17.0641C4.29236 14.8222 4.36125 12.578 4.35458 10.3338C4.35236 9.70938 4.619 9.2872 5.19004 9.02723C8.22083 7.65627 11.2516 6.27864 14.278 4.89656C14.6979 4.70325 15.0956 4.7077 15.5045 4.89656C18.533 6.27419 21.5616 7.65627 24.5902 9.03389C25.1612 9.29165 25.4279 9.71827 25.4145 10.3426C25.4012 10.9626 25.4145 11.5803 25.4101 12.2002C25.4101 12.3424 25.4101 12.4491 25.6123 12.4246C26.9988 12.2691 28.3609 12.4446 29.7163 12.7424C29.7274 12.6913 29.7407 12.6557 29.7407 12.618C29.743 10.8759 29.7474 9.13611 29.7407 7.39407C29.7385 6.84524 29.4385 6.48084 28.9519 6.25864C24.4591 4.21886 19.9662 2.1813 15.4756 0.137077C15.0556 -0.0540139 14.6646 -0.0406813 14.2491 0.148187C9.79621 2.17908 5.34114 4.20997 0.883843 6.23197C0.29724 6.49861 0.0172703 6.91635 0.0217142 7.5585C0.0306021 8.80725 0.0128263 10.0605 0.0261582 11.3092C0.0506 13.7201 -0.0849409 16.1354 0.0950396 18.5418C0.472777 23.6145 2.46145 27.9807 5.96774 31.6581C8.34526 34.1512 11.2516 35.811 14.4313 37.0442C14.6868 37.142 14.9557 37.1797 15.2245 37.0753C16.3599 36.6309 17.4776 36.1443 18.5886 35.5577C17.4554 34.6289 16.4866 33.589 15.7222 32.3692V32.3669Z" fill="#0E2A54"/>
<path d="M22.5863 13.0324C22.8485 12.9413 22.9529 12.8346 22.9351 12.5524C22.9084 12.128 22.9129 11.7014 22.9351 11.277C22.944 11.0593 22.8618 10.9682 22.6729 10.8837C20.1532 9.74828 17.6379 8.60618 15.1271 7.45964C14.9426 7.3752 14.8027 7.38632 14.6249 7.46853C12.1363 8.60396 9.64544 9.73495 7.15015 10.8593C6.93462 10.957 6.8213 11.0526 6.82352 11.3281C6.84129 13.2368 6.82574 15.1433 6.83685 17.0519C6.84796 19.4672 7.43679 21.7381 8.60333 23.8534C9.93874 26.2687 11.8274 28.133 14.3249 29.5217C14.2672 29.3328 14.2361 29.2373 14.2094 29.1395C13.3584 26.2776 13.4228 23.4335 14.5338 20.6604C16.0425 16.8986 18.7533 14.3589 22.5863 13.0324Z" fill="#0E2A54"/>
</svg>
