<svg width="32" height="32" viewBox="0 0 32 32" fill="none" xmlns="http://www.w3.org/2000/svg">
<path fill-rule="evenodd" clip-rule="evenodd" d="M3.91667 6.83333C4.69021 6.83333 5.43208 6.52604 5.97906 5.97906C6.52604 5.43208 6.83333 4.69021 6.83333 3.91667C6.83333 3.14312 6.52604 2.40125 5.97906 1.85427C5.43208 1.30729 4.69021 1 3.91667 1C3.14312 1 2.40125 1.30729 1.85427 1.85427C1.30729 2.40125 1 3.14312 1 3.91667C1 4.69021 1.30729 5.43208 1.85427 5.97906C2.40125 6.52604 3.14312 6.83333 3.91667 6.83333ZM5.375 28.7083C6.53532 28.7083 7.64812 28.2474 8.46859 27.4269C9.28906 26.6065 9.75 25.4937 9.75 24.3333C9.75 23.173 9.28906 22.0602 8.46859 21.2397C7.64812 20.4193 6.53532 19.9583 5.375 19.9583C4.21468 19.9583 3.10188 20.4193 2.28141 21.2397C1.46094 22.0602 1 23.173 1 24.3333C1 25.4937 1.46094 26.6065 2.28141 27.4269C3.10188 28.2474 4.21468 28.7083 5.375 28.7083ZM25.7917 30.1667C26.952 30.1667 28.0648 29.7057 28.8853 28.8853C29.7057 28.0648 30.1667 26.952 30.1667 25.7917C30.1667 24.6313 29.7057 23.5185 28.8853 22.6981C28.0648 21.8776 26.952 21.4167 25.7917 21.4167C24.6313 21.4167 23.5185 21.8776 22.6981 22.6981C21.8776 23.5185 21.4167 24.6313 21.4167 25.7917C21.4167 26.952 21.8776 28.0648 22.6981 28.8853C23.5185 29.7057 24.6313 30.1667 25.7917 30.1667ZM14.125 18.5C15.6721 18.5 17.1558 17.8854 18.2498 16.7915C19.3438 15.6975 19.9583 14.2138 19.9583 12.6667C19.9583 11.1196 19.3438 9.63584 18.2498 8.54188C17.1558 7.44791 15.6721 6.83333 14.125 6.83333C12.5779 6.83333 11.0942 7.44791 10.0002 8.54188C8.90625 9.63584 8.29167 11.1196 8.29167 12.6667C8.29167 14.2138 8.90625 15.6975 10.0002 16.7915C11.0942 17.8854 12.5779 18.5 14.125 18.5ZM22.875 6.83333C23.6485 6.83333 24.3904 6.52604 24.9374 5.97906C25.4844 5.43208 25.7917 4.69021 25.7917 3.91667C25.7917 3.14312 25.4844 2.40125 24.9374 1.85427C24.3904 1.30729 23.6485 1 22.875 1C22.1014 1 21.3596 1.30729 20.8126 1.85427C20.2656 2.40125 19.9583 3.14312 19.9583 3.91667C19.9583 4.69021 20.2656 5.43208 20.8126 5.97906C21.3596 6.52604 22.1014 6.83333 22.875 6.83333Z" fill="#0E2A54" stroke="#0E2A54" stroke-width="2" stroke-linecap="round" stroke-linejoin="round"/>
<path d="M6.10352 6.104L9.02018 9.02067M19.9577 6.83317L18.4993 8.2915M22.8743 22.5103L18.4993 17.0415M8.29102 20.6873L11.2077 17.7707" stroke="#0E2A54" stroke-width="2" stroke-linecap="round" stroke-linejoin="round"/>
</svg>
