<svg width="37" height="37" viewBox="0 0 37 37" fill="none" xmlns="http://www.w3.org/2000/svg">
<path d="M29.4451 33.7623L24.0492 28.4436C23.1499 28.7262 22.2378 28.9384 21.3128 29.0803C20.3878 29.2221 19.4499 29.2925 18.4992 29.2915C15.0562 29.2915 11.9086 28.3665 9.05653 26.5165C6.20445 24.6665 3.96903 22.2255 2.35028 19.1936C2.22181 18.9623 2.12571 18.7249 2.06199 18.4813C1.99827 18.2377 1.9659 17.9869 1.96487 17.729C1.96384 17.471 1.99621 17.2202 2.06199 16.9766C2.12777 16.7331 2.22387 16.4956 2.35028 16.2644C2.91556 15.2623 3.51938 14.2859 4.16174 13.3352C4.8041 12.3845 5.54924 11.5366 6.39716 10.7915L3.1982 7.55397C2.91556 7.27133 2.77424 6.91829 2.77424 6.49485C2.77424 6.0714 2.92841 5.705 3.23674 5.39564C3.51938 5.113 3.8791 4.97168 4.31591 4.97168C4.75271 4.97168 5.11244 5.113 5.39508 5.39564L31.6034 31.604C31.886 31.8866 32.034 32.2402 32.0474 32.6646C32.0608 33.0891 31.9128 33.455 31.6034 33.7623C31.3208 34.0449 30.961 34.1863 30.5242 34.1863C30.0874 34.1863 29.7277 34.0449 29.4451 33.7623ZM18.4992 24.6665C18.7819 24.6665 19.0517 24.6536 19.3086 24.6279C19.5656 24.6022 19.8225 24.5508 20.0795 24.4738L11.7545 16.1488C11.6774 16.4057 11.626 16.6627 11.6003 16.9196C11.5746 17.1765 11.5617 17.4463 11.5617 17.729C11.5617 19.6561 12.2365 21.2943 13.586 22.6438C14.9354 23.9933 16.5732 24.6675 18.4992 24.6665ZM18.4992 6.16647C21.9423 6.16647 25.0965 7.09815 27.962 8.96151C30.8274 10.8249 33.069 13.272 34.6867 16.3029C34.8152 16.5085 34.9118 16.7336 34.9766 16.9782C35.0413 17.2228 35.0732 17.4731 35.0722 17.729C35.0711 17.9849 35.0454 18.2357 34.9951 18.4813C34.9447 18.7269 34.8548 18.9515 34.7253 19.155C34.2371 20.1057 33.6913 21.005 33.088 21.8529C32.4847 22.7008 31.81 23.4974 31.0638 24.2425C30.7041 24.6022 30.2801 24.7692 29.792 24.7436C29.3038 24.7179 28.8798 24.5252 28.5201 24.1654L25.4367 21.0821C25.2569 20.9022 25.1413 20.69 25.0899 20.4454C25.0385 20.2008 25.0513 19.9505 25.1284 19.6946C25.2312 19.3606 25.3083 19.0394 25.3597 18.7311C25.411 18.4227 25.4367 18.0887 25.4367 17.729C25.4367 15.8019 24.7625 14.1641 23.4141 12.8157C22.0656 11.4672 20.4274 10.7925 18.4992 10.7915C18.1395 10.7915 17.8055 10.8172 17.4972 10.8686C17.1888 10.9199 16.8676 10.997 16.5336 11.0998C16.2767 11.1769 16.0197 11.1897 15.7628 11.1383C15.5058 11.087 15.2874 10.9713 15.1076 10.7915L13.8357 9.5196C13.3475 9.0314 13.1872 8.46612 13.3547 7.82376C13.5222 7.1814 13.9267 6.77029 14.568 6.59043C15.2104 6.46196 15.8594 6.35918 16.5151 6.2821C17.1708 6.20501 17.8322 6.16647 18.4992 6.16647ZM21.544 14.8769C21.8267 15.2109 22.0641 15.5773 22.2563 15.9761C22.4485 16.3749 22.5708 16.7922 22.6232 17.2279C22.6489 17.4335 22.5718 17.5748 22.392 17.6519C22.2121 17.729 22.0451 17.6904 21.8909 17.5363L18.7305 14.3758C18.5763 14.2217 18.5445 14.0547 18.6349 13.8748C18.7254 13.6949 18.8728 13.605 19.0774 13.605C19.5656 13.6564 20.0152 13.7916 20.4263 14.0105C20.8374 14.2294 21.21 14.5182 21.544 14.8769Z" fill="#0E2A54"/>
</svg>
