<svg width="33" height="33" viewBox="0 0 33 33" fill="none" xmlns="http://www.w3.org/2000/svg">
<path d="M28.875 9.625C28.875 12.6637 23.3337 15.125 16.5 15.125C9.66625 15.125 4.125 12.6637 4.125 9.625C4.125 6.58625 9.66625 4.125 16.5 4.125C23.3337 4.125 28.875 6.58625 28.875 9.625Z" fill="#0E2A54"/>
<path d="M28.875 9.625C28.875 12.6638 23.3337 15.125 16.5 15.125C9.66625 15.125 4.125 12.6638 4.125 9.625M28.875 9.625C28.875 6.58625 23.3337 4.125 16.5 4.125C9.66625 4.125 4.125 6.58625 4.125 9.625M28.875 9.625V16.5M4.125 9.625V16.5M28.875 16.5C28.875 19.5388 23.3337 22 16.5 22C9.66625 22 4.125 19.5388 4.125 16.5M28.875 16.5V23.375C28.875 26.4138 23.3337 28.875 16.5 28.875C9.66625 28.875 4.125 26.4138 4.125 23.375V16.5" stroke="#0E2A54" stroke-width="2" stroke-linecap="round" stroke-linejoin="round"/>
</svg>
