<svg width="33" height="30" viewBox="0 0 33 30" fill="none" xmlns="http://www.w3.org/2000/svg">
<path d="M20.8 2.62089L31.6891 20.7575C33.254 23.3624 32.4854 26.7895 29.9715 28.4113C29.1283 28.9587 28.1445 29.2499 27.1391 29.2498H5.35925C2.40013 29.2498 0 26.7635 0 23.6939C0 22.6555 0.281125 21.6399 0.80925 20.7575L11.7 2.62089C13.2633 0.0160199 16.5685 -0.781855 19.0824 0.839895C19.7779 1.28839 20.3661 1.89777 20.8 2.62089ZM16.25 22.7498C16.681 22.7498 17.0943 22.5786 17.399 22.2738C17.7038 21.9691 17.875 21.5557 17.875 21.1248C17.875 20.6938 17.7038 20.2805 17.399 19.9757C17.0943 19.671 16.681 19.4998 16.25 19.4998C15.819 19.4998 15.4057 19.671 15.101 19.9757C14.7962 20.2805 14.625 20.6938 14.625 21.1248C14.625 21.5557 14.7962 21.9691 15.101 22.2738C15.4057 22.5786 15.819 22.7498 16.25 22.7498ZM16.25 8.12477C15.819 8.12477 15.4057 8.29597 15.101 8.60072C14.7962 8.90547 14.625 9.31879 14.625 9.74977V16.2498C14.625 16.6807 14.7962 17.0941 15.101 17.3988C15.4057 17.7036 15.819 17.8748 16.25 17.8748C16.681 17.8748 17.0943 17.7036 17.399 17.3988C17.7038 17.0941 17.875 16.6807 17.875 16.2498V9.74977C17.875 9.31879 17.7038 8.90547 17.399 8.60072C17.0943 8.29597 16.681 8.12477 16.25 8.12477Z" fill="#0E2A54"/>
</svg>
