<svg width="27" height="27" viewBox="0 0 27 27" fill="none" xmlns="http://www.w3.org/2000/svg">
<path d="M22.8442 9.05733C22.8338 8.23128 22.6792 7.4134 22.3872 6.64061C22.1352 5.98827 21.7495 5.39583 21.255 4.90133C20.7605 4.40682 20.1681 4.02117 19.5157 3.76912C18.7527 3.48257 17.9466 3.32768 17.1317 3.31108C16.0826 3.26419 15.75 3.2511 13.0868 3.2511C10.4236 3.2511 10.0822 3.2511 9.04073 3.31108C8.22623 3.32781 7.42048 3.48269 6.65782 3.76912C6.00548 4.02117 5.41305 4.40682 4.91854 4.90133C4.42403 5.39583 4.03838 5.98827 3.78633 6.64061C3.50027 7.40333 3.34576 8.20908 3.32938 9.02352C3.28249 10.0737 3.26831 10.4064 3.26831 13.0696C3.26831 15.7327 3.26831 16.073 3.32938 17.1156C3.34574 17.9313 3.49951 18.7362 3.78633 19.5007C4.03863 20.1529 4.4245 20.7452 4.9192 21.2395C5.41389 21.7339 6.00648 22.1193 6.65891 22.3711C7.41961 22.6687 8.22543 22.8346 9.04182 22.8618C10.092 22.9087 10.4247 22.9229 13.0879 22.9229C15.751 22.9229 16.0924 22.9229 17.1339 22.8618C17.9487 22.8456 18.7548 22.6911 19.5179 22.4049C20.1696 22.1517 20.7614 21.7656 21.2557 21.2712C21.7501 20.7769 22.1362 20.1851 22.3894 19.5334C22.6762 18.77 22.83 17.9652 22.8463 17.1483C22.8932 16.0992 22.9074 15.7666 22.9074 13.1023C22.9052 10.4391 22.9052 10.101 22.8442 9.05733ZM13.0802 18.1058C10.2949 18.1058 8.03849 15.8494 8.03849 13.0641C8.03849 10.2788 10.2949 8.02237 13.0802 8.02237C14.4174 8.02237 15.6998 8.55355 16.6453 9.49906C17.5908 10.4446 18.122 11.727 18.122 13.0641C18.122 14.4013 17.5908 15.6836 16.6453 16.6291C15.6998 17.5747 14.4174 18.1058 13.0802 18.1058ZM18.3226 9.01152C18.1682 9.01166 18.0153 8.98136 17.8726 8.92232C17.7299 8.86329 17.6002 8.7767 17.491 8.6675C17.3818 8.55831 17.2952 8.42865 17.2362 8.28595C17.1772 8.14325 17.1468 7.99031 17.147 7.83588C17.147 7.68157 17.1774 7.52876 17.2364 7.38619C17.2955 7.24362 17.382 7.11408 17.4912 7.00496C17.6003 6.89584 17.7298 6.80929 17.8724 6.75023C18.015 6.69118 18.1678 6.66079 18.3221 6.66079C18.4764 6.66079 18.6292 6.69118 18.7718 6.75023C18.9143 6.80929 19.0439 6.89584 19.153 7.00496C19.2621 7.11408 19.3487 7.24362 19.4077 7.38619C19.4668 7.52876 19.4972 7.68157 19.4972 7.83588C19.4972 8.48586 18.9715 9.01152 18.3226 9.01152Z" fill="white"/>
<path d="M13.0805 16.3381C14.8893 16.3381 16.3555 14.8718 16.3555 13.0631C16.3555 11.2544 14.8893 9.78809 13.0805 9.78809C11.2718 9.78809 9.80554 11.2544 9.80554 13.0631C9.80554 14.8718 11.2718 16.3381 13.0805 16.3381Z" fill="white"/>
</svg>
