<?xml version="1.0" encoding="UTF-8"?>
<!DOCTYPE svg PUBLIC "-//W3C//DTD SVG 1.1//EN" "http://www.w3.org/Graphics/SVG/1.1/DTD/svg11.dtd">
<svg xmlns="http://www.w3.org/2000/svg" version="1.1" width="42px" height="41px" style="shape-rendering:geometricPrecision; text-rendering:geometricPrecision; image-rendering:optimizeQuality; fill-rule:evenodd; clip-rule:evenodd" xmlns:xlink="http://www.w3.org/1999/xlink">
<g><path style="opacity:1" fill="#0b2450" d="M 19.5,-0.5 C 26.8333,-0.5 34.1667,-0.5 41.5,-0.5C 41.5,-0.166667 41.5,0.166667 41.5,0.5C 27.8066,13.8607 14.14,27.1941 0.5,40.5C 0.166667,40.5 -0.166667,40.5 -0.5,40.5C -0.5,33.1667 -0.5,25.8333 -0.5,18.5C 6.5913,12.6197 13.258,6.28633 19.5,-0.5 Z"/></g>
<g><path style="opacity:1" fill="#259be8" d="M -0.5,-0.5 C -0.166667,-0.5 0.166667,-0.5 0.5,-0.5C 2.96192,2.46387 5.62859,5.2972 8.5,8C 5.63064,11.0379 2.63064,13.8712 -0.5,16.5C -0.5,10.8333 -0.5,5.16667 -0.5,-0.5 Z"/></g>
<g><path style="opacity:1" fill="#259ce7" d="M 41.5,3.5 C 41.5,14.5 41.5,25.5 41.5,36.5C 35.6365,31.1355 29.9698,25.6355 24.5,20C 29.9698,14.3645 35.6365,8.86447 41.5,3.5 Z"/></g>
<g><path style="opacity:1" fill="#0b2450" d="M 41.5,39.5 C 41.5,39.8333 41.5,40.1667 41.5,40.5C 34.1667,40.5 26.8333,40.5 19.5,40.5C 17.0381,37.5361 14.3714,34.7028 11.5,32C 15.0152,28.3176 18.6819,24.8176 22.5,21.5C 28.8538,27.5216 35.1871,33.5216 41.5,39.5 Z"/></g>
</svg>
