<?xml version="1.0" encoding="UTF-8"?>
<svg version="1.1" xmlns="http://www.w3.org/2000/svg" width="42" height="41">
<path d="M0 0 C0.98291016 0.00966797 1.96582031 0.01933594 2.97851562 0.02929688 C4.00267578 0.05443359 5.02683594 0.07957031 6.08203125 0.10546875 C7.63567383 0.12577148 7.63567383 0.12577148 9.22070312 0.14648438 C11.77916824 0.18185486 14.33658905 0.23121331 16.89453125 0.29296875 C11.83497729 6.45547046 6.27034762 12.0699228 0.62744141 17.69042969 C-0.97348264 19.28600597 -2.56900559 20.88684215 -4.1640625 22.48828125 C-10.82460336 29.15373993 -17.51307754 35.68346294 -25.10546875 41.29296875 C-26.57128996 22.03182743 -26.57128996 22.03182743 -23.3828125 16.07421875 C-21.08491421 13.83544306 -18.77153425 12.07172143 -16.10546875 10.29296875 C-14.6315487 9.01911689 -13.17207585 7.72827706 -11.73046875 6.41796875 C-11.10398437 5.88429688 -10.4775 5.350625 -9.83203125 4.80078125 C-8.09176181 3.36552063 -8.09176181 3.36552063 -6.81665039 1.71704102 C-4.48007207 -0.2274962 -3.00947433 -0.05218742 0 0 Z " fill="#0D2953" transform="translate(25.10546875,-0.29296875)"/>
<path d="M0 0 C3.24276727 1.423555 5.40093304 3.15471065 7.890625 5.66015625 C8.59960938 6.37107422 9.30859375 7.08199219 10.0390625 7.81445312 C10.76867187 8.55630859 11.49828125 9.29816406 12.25 10.0625 C12.99507812 10.80822266 13.74015625 11.55394531 14.5078125 12.32226562 C20 17.85971841 20 17.85971841 20 19 C0.39384124 20.31517061 0.39384124 20.31517061 -5.2421875 17.21875 C-7.14883856 15.23527417 -8.66142101 13.39873356 -10 11 C-6.79239749 7.19364503 -3.59253891 3.45436433 0 0 Z " fill="#0D2953" transform="translate(22,22)"/>
<path d="M0 0 C0 10.89 0 21.78 0 33 C-7.78947368 26.32330827 -7.78947368 26.32330827 -10.75 23.25 C-12.80202538 21.12126339 -14.50105463 19.66596358 -17 18 C-16.44378126 14.35279428 -15.20892932 12.97980963 -12.375 10.6875 C-8.81931296 7.72763079 -5.55868666 4.61321738 -2.34765625 1.28515625 C-1 0 -1 0 0 0 Z " fill="#289EED" transform="translate(42,4)"/>
<path d="M0 0 C6.75 5.625 6.75 5.625 9 9 C7.6905332 10.33631236 6.37734515 11.66897925 5.0625 13 C3.96615234 14.11375 3.96615234 14.11375 2.84765625 15.25 C1 17 1 17 0 17 C0 11.39 0 5.78 0 0 Z " fill="#289DED" transform="translate(0,0)"/>
</svg>
