<svg width="904" height="182" viewBox="0 0 904 182" fill="none" xmlns="http://www.w3.org/2000/svg">
<path d="M248.01 156.539H258.199C260.056 156.539 261.482 157.014 262.479 157.965C263.475 158.916 263.973 160.252 263.973 161.973C263.973 162.788 263.769 163.581 263.362 164.35C262.954 165.12 262.479 165.686 261.935 166.049C262.637 166.388 263.26 167.079 263.803 168.12C264.369 169.139 264.652 170.147 264.652 171.143C264.652 172.841 264.109 174.234 263.022 175.321C261.958 176.385 260.577 176.917 258.879 176.917H248.01V156.539ZM257.86 165.03C258.992 165.03 259.841 164.747 260.407 164.181C260.973 163.615 261.256 162.879 261.256 161.973C261.256 161.067 260.973 160.331 260.407 159.765C259.841 159.199 258.992 158.916 257.86 158.916H250.727V165.03H257.86ZM258.199 174.54C259.377 174.54 260.294 174.234 260.95 173.623C261.607 173.011 261.935 172.185 261.935 171.143C261.935 170.079 261.596 169.196 260.916 168.494C260.26 167.769 259.354 167.407 258.199 167.407H250.727V174.54H258.199ZM276.874 156.539H291.478V158.916H279.591V165.03H291.139V167.407H279.591V174.54H291.818V176.917H276.874V156.539ZM305.074 156.539H314.584C316.124 156.539 317.46 156.845 318.592 157.456C319.724 158.067 320.584 158.916 321.173 160.003C321.762 161.09 322.056 162.313 322.056 163.671C322.056 165.256 321.694 166.603 320.969 167.713C320.245 168.822 319.135 169.626 317.641 170.124L322.735 176.917H319.339L314.584 170.804H307.791V176.917H305.074V156.539ZM314.244 168.426C315.761 168.426 316.984 167.985 317.912 167.102C318.863 166.196 319.339 165.052 319.339 163.671C319.339 162.29 318.863 161.158 317.912 160.275C316.984 159.369 315.761 158.916 314.244 158.916H307.791V168.426H314.244ZM334.634 156.539H337.352V176.917H334.634V156.539ZM356.022 158.916H349.229V156.539H365.532V158.916H358.739V176.917H356.022V158.916ZM383.523 155.86L393.712 176.917H390.656L388.957 173.521H378.089L376.391 176.917H373.334L383.523 155.86ZM387.939 171.143L383.523 161.633L379.108 171.143H387.939ZM428.334 167.068L420.183 156.539H423.579L429.692 164.35L435.806 156.539H439.202L431.051 167.068V176.917H428.334V167.068ZM455.819 155.86L466.008 176.917H462.951L461.253 173.521H450.385L448.687 176.917H445.63L455.819 155.86ZM460.234 171.143L455.819 161.633L451.404 171.143H460.234ZM479.92 162.652V176.917H477.203V155.86L492.147 170.804V156.539H494.864V177.596L479.92 162.652ZM517.625 177.257C515.723 177.257 513.968 176.781 512.36 175.83C510.753 174.879 509.473 173.6 508.523 171.992C507.572 170.385 507.096 168.63 507.096 166.728C507.096 164.826 507.572 163.071 508.523 161.464C509.473 159.856 510.753 158.577 512.36 157.626C513.968 156.675 515.723 156.199 517.625 156.199C519.142 156.199 520.512 156.46 521.734 156.98C522.957 157.479 524.078 158.237 525.097 159.256L523.399 160.954C522.425 160.184 521.497 159.596 520.614 159.188C519.73 158.78 518.734 158.577 517.625 158.577C516.176 158.577 514.851 158.95 513.651 159.697C512.474 160.422 511.534 161.418 510.832 162.686C510.153 163.932 509.813 165.279 509.813 166.728C509.813 168.177 510.153 169.536 510.832 170.804C511.534 172.049 512.474 173.045 513.651 173.792C514.851 174.517 516.176 174.879 517.625 174.879C518.961 174.879 520.206 174.54 521.361 173.86C522.515 173.181 523.455 172.275 524.18 171.143C524.904 169.988 525.323 168.743 525.436 167.407H517.625V165.03H528.153V166.728C528.153 168.63 527.678 170.385 526.727 171.992C525.776 173.6 524.497 174.879 522.889 175.83C521.281 176.781 519.527 177.257 517.625 177.257ZM558.023 155.86L568.212 166.049L578.401 155.86V176.917H575.684V162.652L568.212 170.124L560.74 162.652V176.917H558.023V155.86ZM591.994 156.539H606.598V158.916H594.711V165.03H606.259V167.407H594.711V174.54H606.938V176.917H591.994V156.539ZM622.912 162.652V176.917H620.194V155.86L635.138 170.804V156.539H637.856V177.596L622.912 162.652ZM660.616 177.257C658.714 177.257 656.96 176.781 655.352 175.83C653.744 174.879 652.465 173.6 651.514 171.992C650.563 170.385 650.088 168.63 650.088 166.728C650.088 164.826 650.563 163.071 651.514 161.464C652.465 159.856 653.744 158.577 655.352 157.626C656.96 156.675 658.714 156.199 660.616 156.199C662.133 156.199 663.503 156.46 664.726 156.98C665.949 157.479 667.069 158.237 668.088 159.256L666.39 160.954C665.417 160.184 664.488 159.596 663.605 159.188C662.722 158.78 661.726 158.577 660.616 158.577C659.167 158.577 657.843 158.95 656.643 159.697C655.465 160.422 654.526 161.418 653.824 162.686C653.144 163.932 652.805 165.279 652.805 166.728C652.805 168.177 653.144 169.536 653.824 170.804C654.526 172.049 655.465 173.045 656.643 173.792C657.843 174.517 659.167 174.879 660.616 174.879C661.952 174.879 663.198 174.54 664.352 173.86C665.507 173.181 666.447 172.275 667.171 171.143C667.896 169.988 668.315 168.743 668.428 167.407H660.616V165.03H671.145V166.728C671.145 168.63 670.67 170.385 669.719 171.992C668.768 173.6 667.488 174.879 665.881 175.83C664.273 176.781 662.518 177.257 660.616 177.257ZM683.361 156.539H686.078V176.917H683.361V156.539ZM702.372 162.652V176.917H699.655V155.86L714.598 170.804V156.539H717.316V177.596L702.372 162.652ZM738.378 177.257C736.635 177.257 734.971 176.906 733.386 176.204C731.823 175.502 730.544 174.494 729.548 173.181L731.586 171.483C731.653 171.551 732.004 171.913 732.638 172.57C733.272 173.204 734.099 173.747 735.118 174.2C736.159 174.653 737.246 174.879 738.378 174.879C739.103 174.879 739.873 174.766 740.688 174.54C741.526 174.313 742.25 173.928 742.861 173.385C743.495 172.819 743.812 172.072 743.812 171.143C743.812 170.464 743.552 169.909 743.031 169.479C742.51 169.026 741.865 168.675 741.095 168.426C740.348 168.177 739.295 167.883 737.937 167.543C736.284 167.136 734.948 166.751 733.929 166.388C732.91 166.026 732.038 165.494 731.314 164.792C730.589 164.067 730.227 163.128 730.227 161.973C730.227 160.932 730.555 159.981 731.212 159.12C731.869 158.237 732.808 157.535 734.031 157.014C735.276 156.471 736.725 156.199 738.378 156.199C741.163 156.199 743.541 156.992 745.511 158.577L744.152 160.615C743.314 159.981 742.443 159.482 741.537 159.12C740.654 158.758 739.601 158.577 738.378 158.577C737.631 158.577 736.827 158.701 735.967 158.95C735.129 159.199 734.416 159.584 733.827 160.105C733.238 160.603 732.944 161.226 732.944 161.973C732.944 162.562 733.182 163.049 733.657 163.433C734.133 163.818 734.721 164.124 735.423 164.35C736.148 164.577 737.144 164.826 738.412 165.098C740.133 165.483 741.526 165.868 742.59 166.252C743.677 166.637 744.605 167.226 745.375 168.019C746.145 168.788 746.529 169.83 746.529 171.143C746.529 173.023 745.805 174.517 744.356 175.626C742.907 176.713 740.914 177.257 738.378 177.257ZM758.742 156.539H768.252C769.791 156.539 771.127 156.845 772.259 157.456C773.391 158.067 774.252 158.916 774.84 160.003C775.429 161.09 775.723 162.313 775.723 163.671C775.723 165.03 775.429 166.252 774.84 167.339C774.252 168.426 773.391 169.275 772.259 169.887C771.127 170.498 769.791 170.804 768.252 170.804H761.459V176.917H758.742V156.539ZM767.912 168.426C769.429 168.426 770.652 167.985 771.58 167.102C772.531 166.196 773.006 165.052 773.006 163.671C773.006 162.29 772.531 161.158 771.58 160.275C770.652 159.369 769.429 158.916 767.912 158.916H761.459V168.426H767.912ZM787.937 156.539H790.654V176.917H787.937V156.539ZM804.23 156.539H813.74C815.28 156.539 816.616 156.845 817.748 157.456C818.88 158.067 819.74 158.916 820.329 160.003C820.918 161.09 821.212 162.313 821.212 163.671C821.212 165.256 820.85 166.603 820.125 167.713C819.401 168.822 818.291 169.626 816.797 170.124L821.891 176.917H818.495L813.74 170.804H806.947V176.917H804.23V156.539ZM813.4 168.426C814.917 168.426 816.14 167.985 817.068 167.102C818.019 166.196 818.495 165.052 818.495 163.671C818.495 162.29 818.019 161.158 817.068 160.275C816.14 159.369 814.917 158.916 813.4 158.916H806.947V168.426H813.4ZM841.602 155.86L851.791 176.917H848.734L847.036 173.521H836.168L834.47 176.917H831.413L841.602 155.86ZM846.017 171.143L841.602 161.633L837.187 171.143H846.017ZM870.458 177.257C868.714 177.257 867.05 176.906 865.465 176.204C863.903 175.502 862.624 174.494 861.627 173.181L863.665 171.483C863.733 171.551 864.084 171.913 864.718 172.57C865.352 173.204 866.178 173.747 867.197 174.2C868.239 174.653 869.326 174.879 870.458 174.879C871.182 174.879 871.952 174.766 872.767 174.54C873.605 174.313 874.33 173.928 874.941 173.385C875.575 172.819 875.892 172.072 875.892 171.143C875.892 170.464 875.632 169.909 875.111 169.479C874.59 169.026 873.945 168.675 873.175 168.426C872.428 168.177 871.375 167.883 870.016 167.543C868.363 167.136 867.027 166.751 866.009 166.388C864.99 166.026 864.118 165.494 863.393 164.792C862.669 164.067 862.307 163.128 862.307 161.973C862.307 160.932 862.635 159.981 863.291 159.12C863.948 158.237 864.888 157.535 866.11 157.014C867.356 156.471 868.805 156.199 870.458 156.199C873.243 156.199 875.62 156.992 877.59 158.577L876.232 160.615C875.394 159.981 874.522 159.482 873.616 159.12C872.733 158.758 871.68 158.577 870.458 158.577C869.711 158.577 868.907 158.701 868.046 158.95C867.209 159.199 866.495 159.584 865.907 160.105C865.318 160.603 865.024 161.226 865.024 161.973C865.024 162.562 865.261 163.049 865.737 163.433C866.212 163.818 866.801 164.124 867.503 164.35C868.227 164.577 869.224 164.826 870.492 165.098C872.213 165.483 873.605 165.868 874.669 166.252C875.756 166.637 876.684 167.226 877.454 168.019C878.224 168.788 878.609 169.83 878.609 171.143C878.609 173.023 877.884 174.517 876.435 175.626C874.986 176.713 872.994 177.257 870.458 177.257ZM890.821 156.539H893.538V176.917H890.821V156.539Z" fill="black"/>
<path d="M248.048 49.1139H287.195C293.533 49.1139 299.033 50.3722 303.693 52.8888C308.353 55.4054 311.895 58.9006 314.318 63.3746C316.742 67.8485 317.953 72.8816 317.953 78.4741C317.953 84.0665 316.742 89.0996 314.318 93.5735C311.895 98.0475 308.353 101.543 303.693 104.059C299.033 106.576 293.533 107.834 287.195 107.834H259.233V133H248.048V49.1139ZM285.797 98.0475C292.042 98.0475 297.075 96.2299 300.897 92.5949C304.811 88.8666 306.769 84.1597 306.769 78.4741C306.769 72.7884 304.811 68.1281 300.897 64.493C297.075 60.7648 292.042 58.9006 285.797 58.9006H259.233V98.0475H285.797ZM331.88 49.1139H371.027C377.365 49.1139 382.864 50.3722 387.524 52.8888C392.185 55.4054 395.727 58.9006 398.15 63.3746C400.573 67.8485 401.785 72.8816 401.785 78.4741C401.785 84.9985 400.294 90.5443 397.311 95.1115C394.328 99.6786 389.761 102.987 383.61 105.038L404.581 133H390.6L371.027 107.834H343.065V133H331.88V49.1139ZM369.629 98.0475C375.873 98.0475 380.907 96.2299 384.728 92.5949C388.643 88.8666 390.6 84.1597 390.6 78.4741C390.6 72.7884 388.643 68.1281 384.728 64.493C380.907 60.7648 375.873 58.9006 369.629 58.9006H343.065V98.0475H369.629ZM417.213 49.1139H477.332V58.9006H428.398V84.0665H475.933V93.8532H428.398V123.213H478.73V133H417.213V49.1139ZM527.707 134.398C520.53 134.398 513.679 132.953 507.155 130.064C500.724 127.175 495.457 123.027 491.356 117.621L499.745 110.63C500.024 110.91 501.469 112.401 504.079 115.104C506.689 117.714 510.091 119.951 514.285 121.815C518.573 123.679 523.047 124.611 527.707 124.611C530.69 124.611 533.859 124.145 537.214 123.213C540.663 122.281 543.645 120.697 546.162 118.46C548.772 116.13 550.077 113.054 550.077 109.232C550.077 106.436 549.005 104.153 546.861 102.382C544.717 100.517 542.061 99.0727 538.892 98.0475C535.816 97.0222 531.482 95.8105 525.889 94.4124C519.085 92.7347 513.586 91.1502 509.392 89.6589C505.197 88.1676 501.609 85.9772 498.626 83.0878C495.644 80.1052 494.152 76.2371 494.152 71.4835C494.152 67.196 495.504 63.2813 498.207 59.7395C500.91 56.1044 504.778 53.215 509.811 51.0713C514.938 48.8343 520.903 47.7158 527.707 47.7158C539.171 47.7158 548.958 50.9781 557.067 57.5025L551.475 65.8911C548.026 63.2814 544.438 61.2308 540.709 59.7395C537.074 58.2482 532.74 57.5025 527.707 57.5025C524.631 57.5025 521.322 58.0152 517.78 59.0404C514.332 60.0657 511.396 61.6502 508.972 63.794C506.549 65.8445 505.337 68.4077 505.337 71.4835C505.337 73.9069 506.316 75.9109 508.273 77.4954C510.231 79.0799 512.654 80.3382 515.543 81.2703C518.526 82.2023 522.627 83.2276 527.847 84.3461C534.93 85.9306 540.663 87.5151 545.043 89.0996C549.517 90.6841 553.339 93.1075 556.508 96.3697C559.677 99.5388 561.261 103.826 561.261 109.232C561.261 116.968 558.279 123.12 552.313 127.687C546.348 132.161 538.146 134.398 527.707 134.398ZM605.941 134.398C598.764 134.398 591.913 132.953 585.388 130.064C578.957 127.175 573.691 123.027 569.59 117.621L577.978 110.63C578.258 110.91 579.703 112.401 582.313 115.104C584.922 117.714 588.324 119.951 592.519 121.815C596.806 123.679 601.28 124.611 605.941 124.611C608.923 124.611 612.092 124.145 615.448 123.213C618.896 122.281 621.879 120.697 624.395 118.46C627.005 116.13 628.31 113.054 628.31 109.232C628.31 106.436 627.238 104.153 625.094 102.382C622.951 100.517 620.294 99.0727 617.125 98.0475C614.049 97.0222 609.715 95.8105 604.123 94.4124C597.319 92.7347 591.82 91.1502 587.625 89.6589C583.431 88.1676 579.843 85.9772 576.86 83.0878C573.877 80.1052 572.386 76.2371 572.386 71.4835C572.386 67.196 573.738 63.2813 576.441 59.7395C579.144 56.1044 583.012 53.215 588.045 51.0713C593.171 48.8343 599.136 47.7158 605.941 47.7158C617.405 47.7158 627.192 50.9781 635.301 57.5025L629.708 65.8911C626.26 63.2814 622.671 61.2308 618.943 59.7395C615.308 58.2482 610.974 57.5025 605.941 57.5025C602.865 57.5025 599.556 58.0152 596.014 59.0404C592.565 60.0657 589.629 61.6502 587.206 63.794C584.783 65.8445 583.571 68.4077 583.571 71.4835C583.571 73.9069 584.55 75.9109 586.507 77.4954C588.464 79.0799 590.888 80.3382 593.777 81.2703C596.76 82.2023 600.861 83.2276 606.08 84.3461C613.164 85.9306 618.896 87.5151 623.277 89.0996C627.751 90.6841 631.572 93.1075 634.741 96.3697C637.91 99.5388 639.495 103.826 639.495 109.232C639.495 116.968 636.512 123.12 630.547 127.687C624.582 132.161 616.38 134.398 605.941 134.398ZM674.387 58.9006H646.425V49.1139H713.534V58.9006H685.572V133H674.387V58.9006ZM793.188 133H780.605L751.245 70.0854L721.885 133H709.302L751.245 46.3177L793.188 133ZM833.678 134.398C826.501 134.398 819.65 132.953 813.126 130.064C806.695 127.175 801.429 123.027 797.327 117.621L805.716 110.63C805.996 110.91 807.44 112.401 810.05 115.104C812.66 117.714 816.062 119.951 820.256 121.815C824.544 123.679 829.018 124.611 833.678 124.611C836.661 124.611 839.83 124.145 843.185 123.213C846.634 122.281 849.616 120.697 852.133 118.46C854.743 116.13 856.048 113.054 856.048 109.232C856.048 106.436 854.976 104.153 852.832 102.382C850.688 100.517 848.032 99.0727 844.863 98.0475C841.787 97.0222 837.453 95.8105 831.861 94.4124C825.056 92.7347 819.557 91.1502 815.363 89.6589C811.169 88.1676 807.58 85.9772 804.598 83.0878C801.615 80.1052 800.124 76.2371 800.124 71.4835C800.124 67.196 801.475 63.2813 804.178 59.7395C806.881 56.1044 810.749 53.215 815.782 51.0713C820.909 48.8343 826.874 47.7158 833.678 47.7158C845.143 47.7158 854.929 50.9781 863.038 57.5025L857.446 65.8911C853.997 63.2814 850.409 61.2308 846.68 59.7395C843.045 58.2482 838.711 57.5025 833.678 57.5025C830.602 57.5025 827.293 58.0152 823.752 59.0404C820.303 60.0657 817.367 61.6502 814.944 63.794C812.52 65.8445 811.308 68.4077 811.308 71.4835C811.308 73.9069 812.287 75.9109 814.245 77.4954C816.202 79.0799 818.625 80.3382 821.515 81.2703C824.497 82.2023 828.598 83.2276 833.818 84.3461C840.902 85.9306 846.634 87.5151 851.015 89.0996C855.488 90.6841 859.31 93.1075 862.479 96.3697C865.648 99.5388 867.233 103.826 867.233 109.232C867.233 116.968 864.25 123.12 858.285 127.687C852.319 132.161 844.117 134.398 833.678 134.398ZM881.153 49.1139H892.338V133H881.153V49.1139Z" fill="black"/>
<ellipse cx="188.592" cy="114.649" rx="15.3893" ry="15.3893" fill="#A5EB42"/>
<ellipse cx="15.3893" cy="114.649" rx="15.3893" ry="15.3893" fill="#A5EB42"/>
<path d="M74.7713 45.4616L47.4746 56.6338C68.4975 107.999 137.717 102.97 156.255 57.0025L128.541 45.3859C120.193 69.3636 84.6221 69.5297 74.7713 45.4616Z" fill="#A5EB42"/>
<ellipse cx="101.932" cy="31.7086" rx="15.3893" ry="15.3893" fill="black"/>
<path d="M72.552 178.798L97.7913 178.798C108.661 123.619 75.4613 75.7998 30.1608 74.2128L28.5035 97.9801C39.684 97.8169 54.4278 106.072 57.0155 114.738C56.2306 125.996 42.993 137.329 25.8433 136.133L24.4695 155.835C41.9368 157.053 59.6286 153.541 68.4727 136.561C75.2682 151.091 74.6447 167.702 72.552 178.798Z" fill="black"/>
<mask id="mask0_6220_2251" style="mask-type:alpha" maskUnits="userSpaceOnUse" x="24" y="73" width="77" height="107">
<path d="M72.6223 178.751L97.8616 178.751C108.731 123.572 75.5316 75.753 30.2311 74.1659L28.5739 97.9332C39.7544 97.77 54.4982 106.025 57.0858 114.691C56.3009 125.949 43.0633 137.282 25.9136 136.086L24.5398 155.788C42.0072 157.006 59.6989 153.494 68.543 136.514C75.3385 151.044 74.715 167.656 72.6223 178.751Z" fill="#F4F4F4" stroke="black" stroke-width="0.558529"/>
</mask>
<g mask="url(#mask0_6220_2251)">
<path d="M101.236 95.6309C84.9642 95.6309 71.7734 138.266 71.7734 190.86H130.698C130.698 138.266 117.507 95.6309 101.236 95.6309Z" fill="#A5EB42" stroke="black" stroke-width="1.11706"/>
</g>
<path d="M131.716 178.798L106.476 178.798C95.6068 123.619 128.806 75.7998 174.107 74.2128L175.764 97.9801C164.584 97.8169 149.84 106.072 147.252 114.738C148.037 125.996 161.275 137.329 178.424 136.133L179.798 155.835C162.331 157.053 144.639 153.541 135.795 136.561C128.999 151.091 129.623 167.702 131.716 178.798Z" fill="black"/>
<mask id="mask1_6220_2251" style="mask-type:alpha" maskUnits="userSpaceOnUse" x="104" y="74" width="76" height="105">
<path d="M131.827 178.751L106.588 178.751C95.7181 123.572 128.918 75.753 174.218 74.1659L175.875 97.9332C164.695 97.77 149.951 106.025 147.363 114.691C148.148 125.949 161.386 137.282 178.536 136.086L179.909 155.788C162.442 157.006 144.75 153.494 135.906 136.514C129.111 151.044 129.734 167.656 131.827 178.751Z" fill="#F4F4F4"/>
</mask>
<g mask="url(#mask1_6220_2251)">
<path d="M103.121 95.6309C86.849 95.6309 73.6582 138.266 73.6582 190.86H132.583C132.583 138.266 119.392 95.6309 103.121 95.6309Z" fill="#A5EB42"/>
</g>
</svg>
