<svg width="240" height="200" viewBox="0 0 240 200" fill="none" xmlns="http://www.w3.org/2000/svg">
  <!-- Subtle shadow ellipse -->
  <ellipse cx="120" cy="175" rx="70" ry="10" fill="#EAF3FF" opacity="0.8"/>
  
  <!-- Folder shape background -->
  <path d="M60 70C60 64.4772 64.4772 60 70 60H110L125 75H170C175.523 75 180 79.4772 180 85V150C180 155.523 175.523 160 170 160H70C64.4772 160 60 155.523 60 150V70Z" fill="#F0F6FF" stroke="#D1E4FF" stroke-width="2"/>
  
  <!-- Document coming out of folder -->
  <rect x="80" y="45" width="80" height="100" rx="4" fill="#FFFFFF" stroke="#D1E4FF" stroke-width="2"/>
  <line x1="95" y1="65" x2="145" y2="65" stroke="#E2ECFC" stroke-width="3" stroke-linecap="round"/>
  <line x1="95" y1="85" x2="130" y2="85" stroke="#E2ECFC" stroke-width="3" stroke-linecap="round"/>
  <line x1="95" y1="105" x2="145" y2="105" stroke="#E2ECFC" stroke-width="3" stroke-linecap="round"/>
  <line x1="95" y1="125" x2="120" y2="125" stroke="#E2ECFC" stroke-width="3" stroke-linecap="round"/>

  <!-- Magnifying Glass -->
  <circle cx="145" cy="125" r="22" fill="#FFFFFF" stroke="#299EED" stroke-width="4"/>
  <line x1="160.5" y1="140.5" x2="185" y2="165" stroke="#299EED" stroke-width="4" stroke-linecap="round"/>
  
  <!-- Inner search query symbol / cross -->
  <path d="M140 120 L150 130 M150 120 L140 130" stroke="#81C3F9" stroke-width="2.5" stroke-linecap="round"/>

  <!-- Sparkles / Details -->
  <path d="M50 45 L54 41 L50 37 L46 41 Z" fill="#299EED" opacity="0.6"/>
  <path d="M190 65 L193 62 L190 59 L187 62 Z" fill="#81C3F9"/>
  <circle cx="195" cy="140" r="3" fill="#299EED" opacity="0.5"/>
</svg>