<svg width="402" height="117" viewBox="0 0 402 117" fill="none" xmlns="http://www.w3.org/2000/svg">
<g clip-path="url(#clip0_18123_372)">
<path d="M116.037 12.3697L70.863 57.6621C70.4037 58.1225 70.4037 58.8714 70.863 59.338L116.037 104.624C116.282 104.87 116.711 104.698 116.711 104.348V12.646C116.711 12.2961 116.288 12.1181 116.037 12.3697Z" fill="#299EED"/>
<path d="M0.673603 46.1211L22.4861 24.2545C22.9454 23.7941 22.9454 23.0452 22.4861 22.5786L0.673603 0.718243C0.422533 0.466551 0 0.644577 0 0.99449V45.8448C0 46.1947 0.422533 46.3727 0.673603 46.1211Z" fill="#299EED"/>
<path d="M63.3371 65.2067L35.2662 93.3409C35.1131 93.4944 35.1131 93.7461 35.2662 93.8996L57.9605 116.65C58.1809 116.871 58.481 116.994 58.7933 116.994H115.713C116.062 116.994 116.239 116.57 115.988 116.319L64.9966 65.2005C64.5373 64.7401 63.7902 64.7401 63.3248 65.2005L63.3371 65.2067Z" fill="#0E2A54"/>
<path d="M64.1943 52.6466L115.768 0.94538C116.117 0.595467 115.872 0 115.376 0H59.3321C58.7075 0 58.1074 0.251692 57.6604 0.693688L0.232699 58.2698C0.0857313 58.4171 0 58.6197 0 58.8284V116.048C0 116.398 0.422533 116.576 0.673603 116.325L29.1547 87.773L29.167 87.7607L58.334 58.5153L64.1943 52.6405V52.6466Z" fill="#0E2A54"/>
<path d="M143.661 14.3096H153.208V33.825L169.411 14.3096H180.526L164.133 34.0153L181.53 59.0065H170.666L157.856 40.4365L153.208 45.8509V59.0065H143.661V14.3096Z" fill="#0D0D0D"/>
<path d="M201.665 14.3096H211.505C211.946 14.3096 212.338 14.5859 212.485 14.9972L228.315 59.0065H218.394L215.13 49.4974H197.984L194.72 59.0065H184.861L200.691 14.9972C200.838 14.5859 201.23 14.3096 201.671 14.3096H201.665ZM212.491 41.6336L206.588 24.3834L200.685 41.6336H212.491Z" fill="#0D0D0D"/>
<path d="M233.397 14.3096H242.944V50.9523H263.483V59.0126H234.444C233.869 59.0126 233.403 58.546 233.403 57.969V14.3096H233.397Z" fill="#0D0D0D"/>
<path d="M269.441 42.892V14.2482H278.988V42.892C278.988 48.6809 282.129 51.9591 287.843 51.9591C293.556 51.9591 296.636 48.6871 296.636 42.892V14.2482H306.183V42.892C306.183 53.3403 299.086 60.0194 287.849 60.0194C276.612 60.0194 269.447 53.3465 269.447 42.892H269.441Z" fill="#0D0D0D"/>
<path d="M314.524 14.3096H325.075L342.784 45.1572V14.3096H352.331V59.0065H341.657L324.07 29.227V59.0065H314.524V14.3096Z" fill="#0D0D0D"/>
<path d="M375.35 14.3096H385.191C385.632 14.3096 386.023 14.5859 386.17 14.9972L402 59.0065H392.08L388.816 49.4974H371.67L368.406 59.0065H358.547L374.376 14.9972C374.523 14.5859 374.915 14.3096 375.356 14.3096H375.35ZM386.177 41.6336L380.273 24.3834L374.37 41.6336H386.177Z" fill="#0D0D0D"/>
<path d="M150.648 79.4488H142.645V76.3978H161.763V79.4488H153.759V102.169H150.648V79.4488Z" fill="#0D0D0D"/>
<path d="M168.137 76.4039H184.285V79.4549H171.248V87.7669H183.851V90.7442H171.248V99.1299H184.573V102.181H168.137V76.4101V76.4039Z" fill="#0D0D0D"/>
<path d="M190.587 89.32C190.587 80.9712 195.259 75.8207 202.136 75.8207C208.364 75.8207 211.658 79.1971 212.742 84.6054L209.448 84.8203C208.725 81.1554 206.404 78.8656 202.136 78.8656C197.212 78.8656 193.844 82.7883 193.844 89.32C193.844 95.8517 197.212 99.7008 202.136 99.7008C206.625 99.7008 209.013 97.1962 209.668 93.1691L212.963 93.3839C212.019 98.9703 208.29 102.746 202.136 102.746C195.259 102.746 190.587 97.6627 190.587 89.3139V89.32Z" fill="#0D0D0D"/>
<path d="M220.06 76.4039H223.171V87.6932H236.098V76.4039H239.209V102.175H236.098V90.7442H223.171V102.175H220.06V76.4039Z" fill="#0D0D0D"/>
<path d="M247.139 76.4039H251.554L264.26 99.0501V76.4039H267.371V102.175H262.736L250.243 79.9645V102.175H247.133V76.4039H247.139Z" fill="#0D0D0D"/>
<path d="M274.113 89.32C274.113 80.9712 278.529 75.8207 285.846 75.8207C293.164 75.8207 297.616 80.9774 297.616 89.32C297.616 97.6627 293.201 102.752 285.846 102.752C278.492 102.752 274.113 97.6688 274.113 89.32ZM294.352 89.32C294.352 82.7883 291.168 78.8656 285.846 78.8656C280.525 78.8656 277.371 82.7883 277.371 89.32C277.371 95.8517 280.555 99.7008 285.846 99.7008C291.137 99.7008 294.352 95.8517 294.352 89.32Z" fill="#0D0D0D"/>
<path d="M304.53 76.4039H307.64V99.1238H320.494V102.175H304.53V76.4039Z" fill="#0D0D0D"/>
<path d="M324.701 89.32C324.701 80.9712 329.116 75.8207 336.434 75.8207C343.752 75.8207 348.204 80.9774 348.204 89.32C348.204 97.6627 343.788 102.752 336.434 102.752C329.079 102.752 324.701 97.6688 324.701 89.32ZM344.94 89.32C344.94 82.7883 341.755 78.8656 336.434 78.8656C331.112 78.8656 327.959 82.7883 327.959 89.32C327.959 95.8517 331.143 99.7008 336.434 99.7008C341.725 99.7008 344.94 95.8517 344.94 89.32Z" fill="#0D0D0D"/>
<path d="M353.917 89.32C353.917 81.5912 358.228 75.8207 365.466 75.8207C371.62 75.8207 374.805 79.5225 375.748 84.3169L372.49 84.5317C371.841 81.1922 369.845 78.8717 365.466 78.8717C359.6 78.8717 357.175 83.7337 357.175 89.3262C357.175 95.2072 359.71 99.7069 365.466 99.7069C370.028 99.7069 372.851 96.2201 372.925 92.1193H365.54V89.142H375.821V102.175H373.507L373.36 97.853C372.092 100.757 368.908 102.752 365.393 102.752C358.148 102.752 353.917 97.0918 353.917 89.32Z" fill="#0D0D0D"/>
<path d="M389.802 91.6466L380.714 76.4039H384.407L391.357 88.4545L398.307 76.4039H402L392.912 91.6466V102.175H389.802V91.6466Z" fill="#0D0D0D"/>
</g>
<defs>
<clipPath id="clip0_18123_372">
<rect width="402" height="117" fill="white"/>
</clipPath>
</defs>
</svg>
