<svg width="42" height="42" viewBox="0 0 42 42" fill="none" xmlns="http://www.w3.org/2000/svg">
<path d="M28.875 9.625C29.8033 9.625 30.6935 9.25625 31.3499 8.59987C32.0063 7.9435 32.375 7.05326 32.375 6.125C32.375 5.19674 32.0063 4.3065 31.3499 3.65013C30.6935 2.99375 29.8033 2.625 28.875 2.625C27.9467 2.625 27.0565 2.99375 26.4001 3.65013C25.7437 4.3065 25.375 5.19674 25.375 6.125C25.375 7.05326 25.7437 7.9435 26.4001 8.59987C27.0565 9.25625 27.9467 9.625 28.875 9.625ZM22.575 33.95L24.325 26.25L28 29.75V40.25H31.5V27.125L27.825 23.625L28.875 18.375C30.0741 19.749 31.5535 20.8503 33.2137 21.6049C34.8738 22.3596 36.6764 22.75 38.5 22.75V19.25C35.42 19.3025 32.55 17.6925 30.975 15.05L29.225 12.25C28.595 11.2 27.475 10.5 26.25 10.5C25.725 10.5 25.375 10.675 24.85 10.675L15.75 14.525V22.75H19.25V16.8L22.4 15.575L19.6 29.75L11.025 28L10.325 31.5L22.575 33.95ZM7 15.75C6.53587 15.75 6.09075 15.5656 5.76256 15.2374C5.43437 14.9092 5.25 14.4641 5.25 14C5.25 13.5359 5.43437 13.0908 5.76256 12.7626C6.09075 12.4344 6.53587 12.25 7 12.25H12.25V15.75H7ZM8.75 8.75C8.28587 8.75 7.84075 8.56563 7.51256 8.23744C7.18437 7.90925 7 7.46413 7 7C7 6.53587 7.18437 6.09075 7.51256 5.76256C7.84075 5.43437 8.28587 5.25 8.75 5.25H17.5V8.75H8.75ZM5.25 22.75C4.78587 22.75 4.34075 22.5656 4.01256 22.2374C3.68437 21.9092 3.5 21.4641 3.5 21C3.5 20.5359 3.68437 20.0908 4.01256 19.7626C4.34075 19.4344 4.78587 19.25 5.25 19.25H12.25V22.75H5.25Z" fill="#0E2A54"/>
</svg>
