<svg width="44" height="44" viewBox="0 0 44 44" fill="none" xmlns="http://www.w3.org/2000/svg">
<path fill-rule="evenodd" clip-rule="evenodd" d="M29.3327 10.0834C29.3327 13.6272 26.4598 16.5001 22.916 16.5001C19.3722 16.5001 16.4994 13.6272 16.4994 10.0834C16.4994 6.53955 19.3722 3.66675 22.916 3.66675C26.4598 3.66675 29.3327 6.53955 29.3327 10.0834ZM14.666 15.5834C14.666 18.1146 12.614 20.1667 10.0827 20.1667C7.55142 20.1667 5.49941 18.1146 5.49941 15.5834C5.49941 13.0521 7.55134 11.0001 10.0827 11.0001C12.6141 11.0001 14.666 13.0521 14.666 15.5834ZM3.66602 27.5001C3.66602 24.4625 6.12847 22.0001 9.16602 22.0001H10.9994C11.221 22.0001 11.4396 22.0131 11.6543 22.0386C11.2321 23.0938 10.9991 24.2505 10.9991 25.4634V34.8334H3.6661L3.66602 27.5001ZM28.6093 22.0001H33.7019V23.9626C34.5868 24.276 35.4062 24.7499 36.1191 25.3606L37.821 24.378L40.3673 28.7883L38.6663 29.7703C38.7512 30.2309 38.7938 30.6983 38.7937 31.1666C38.7938 31.6349 38.7512 32.1022 38.6663 32.5628L40.3673 33.5449L37.821 37.9552L36.1191 36.9726C35.4062 37.5832 34.5868 38.0571 33.7019 38.3705V40.3334H28.6093V38.3711C27.724 38.0578 26.9042 37.5839 26.1909 36.973L24.4901 37.955L21.9439 33.5446L23.6433 32.5635C23.5583 32.1027 23.5157 31.6351 23.5159 31.1666C23.5159 30.6895 23.5596 30.2226 23.6433 29.7697L21.9439 28.7885L24.4902 24.3782L26.1908 25.3601C26.9041 24.7492 27.724 24.2753 28.6093 23.962V22.0001ZM34.2103 31.1667C34.2103 32.8543 32.8423 34.2223 31.1548 34.2223C29.4672 34.2223 28.0992 32.8543 28.0992 31.1667C28.0992 29.4792 29.4672 28.1112 31.1548 28.1112C32.8423 28.1112 34.2103 29.4792 34.2103 31.1667ZM12.8325 25.6667C12.8325 21.6166 16.1157 18.3334 20.1658 18.3334H25.6658C27.5352 18.3334 29.2413 19.0329 30.5365 20.1845C24.7543 20.5107 20.166 25.3029 20.166 31.1667C20.166 32.4524 20.3866 33.6865 20.792 34.8334H12.8325V25.6667Z" fill="#0E2A54"/>
</svg>
