<svg width="442" height="388" viewBox="0 0 442 388" fill="none" xmlns="http://www.w3.org/2000/svg">
<path d="M21.1556 319.16H20.6287L9.48621 293.638H0V334.669H6.77599V303.274L16.6385 326.161L16.7137 326.387H24.4682L34.4815 303.048V334.669H41.7089V293.638H32.0722L21.1556 319.16Z" fill="#171919"/>
<path d="M68.9628 305.006C66.93 304.253 64.3704 303.801 61.2836 303.801C60.3049 303.801 59.3262 303.801 58.2722 303.801C57.2182 303.801 56.1641 303.876 55.1854 303.952C54.2067 303.952 53.3031 304.102 52.4749 304.177H52.174V310.426H52.5503C53.4537 310.351 54.5079 310.276 55.7125 310.2C56.917 310.2 58.1216 310.125 59.4014 310.05C60.6813 310.05 61.8105 310.05 62.8646 310.05C64.6714 310.05 66.0267 310.502 66.9301 311.405C67.8336 312.308 68.2852 313.664 68.2852 315.395V315.621H61.8107C59.1756 315.621 56.8417 315.997 54.9595 316.675C53.0021 317.428 51.4963 318.482 50.4423 319.912C49.3883 321.343 48.8613 323.225 48.8613 325.408C48.8613 327.516 49.313 329.323 50.2164 330.829C51.1199 332.335 52.475 333.464 54.1313 334.292C55.7876 335.045 57.745 335.421 60.0036 335.421C62.2622 335.421 63.9939 335.045 65.4996 334.217C67.0054 333.464 68.21 332.259 69.0381 330.829C69.1887 330.603 69.2641 330.453 69.3393 330.227V334.593H75.1363V315.621C75.1363 312.76 74.6092 310.426 73.6305 308.695C72.6518 306.963 71.0709 305.683 69.0381 304.855M68.3606 323.15C68.3606 324.881 67.9088 326.236 67.3065 327.215C66.6289 328.194 65.8762 328.872 64.8975 329.248C63.9187 329.624 62.8646 329.85 61.7353 329.85C59.8531 329.85 58.4226 329.399 57.4439 328.57C56.4652 327.742 56.0134 326.613 56.0134 325.182C56.0134 323.752 56.4652 322.623 57.4439 321.719C58.4226 320.816 59.8531 320.364 61.7353 320.364H68.4357V323.15H68.3606Z" fill="#171919"/>
<path d="M99.4541 303.274H99.1529C96.6684 303.274 94.6355 303.801 92.904 304.93C91.2476 305.985 89.9678 307.566 89.215 309.598V304.178H83.418V334.669H90.5701V316.675C90.5701 314.567 91.1724 312.911 92.4522 311.631C93.6568 310.351 95.3133 309.749 97.3461 309.749C99.3788 309.749 100.885 310.351 102.014 311.556C103.143 312.76 103.67 314.341 103.67 316.374V334.669H110.822V317.278C110.822 312.76 109.919 309.297 108.037 306.888C106.155 304.479 103.294 303.274 99.5292 303.274" fill="#171919"/>
<path d="M141.615 307.867C140.636 306.511 139.432 305.457 138.001 304.705C136.119 303.726 134.011 303.199 131.677 303.199C129.494 303.199 127.461 303.575 125.73 304.403C123.923 305.232 122.417 306.361 121.137 307.791C119.857 309.222 118.878 310.878 118.201 312.835C117.523 314.718 117.147 316.75 117.147 318.934V319.988C117.147 322.171 117.523 324.279 118.201 326.161C118.878 328.043 119.932 329.7 121.288 331.13C122.643 332.561 124.224 333.69 125.955 334.443C127.762 335.196 129.72 335.647 131.903 335.647C134.162 335.647 136.345 335.12 138.227 334.142C140.109 333.163 141.69 331.582 142.895 329.549V334.669H148.692V293.562H141.54V307.867H141.615ZM141.841 320.364C141.841 322.246 141.465 323.827 140.636 325.183C139.808 326.538 138.754 327.592 137.474 328.269C136.194 328.947 134.689 329.323 133.108 329.323C131.376 329.323 129.87 328.947 128.515 328.119C127.16 327.291 126.106 326.161 125.353 324.656C124.6 323.15 124.224 321.343 124.224 319.31C124.224 317.277 124.6 315.546 125.353 314.04C126.106 312.534 127.16 311.405 128.515 310.502C129.87 309.673 131.376 309.222 133.108 309.222C134.689 309.222 136.119 309.598 137.474 310.276C138.754 310.953 139.883 311.932 140.712 313.212C141.54 314.492 141.916 316.073 141.916 317.88V320.289L141.841 320.364Z" fill="#171919"/>
<path d="M161.49 300.639C162.921 300.639 164.05 300.263 164.727 299.51C165.405 298.757 165.782 297.778 165.782 296.574C165.782 295.369 165.405 294.466 164.727 293.638C164.05 292.885 162.921 292.433 161.49 292.433C160.06 292.433 159.006 292.809 158.253 293.638C157.575 294.39 157.199 295.369 157.199 296.574C157.199 297.778 157.575 298.757 158.253 299.51C158.93 300.263 160.06 300.639 161.415 300.639" fill="#171919"/>
<path d="M154.715 309.824H159.081V334.669H166.158V304.178H154.715V309.824Z" fill="#171919"/>
<path d="M183.022 307.114C182.119 308.092 181.441 309.372 180.989 310.803V304.177H175.192V334.669H182.344V318.482C182.344 315.847 183.097 313.739 184.528 312.308C185.958 310.878 188.066 310.125 190.777 310.125H193.111V303.801H191.755C187.991 303.801 185.055 304.93 183.173 307.114" fill="#171919"/>
<path d="M195.219 309.824H199.586V334.669H206.663V304.178H195.219V309.824Z" fill="#171919"/>
<path d="M201.994 300.639C203.424 300.639 204.554 300.263 205.231 299.51C205.909 298.757 206.285 297.778 206.285 296.574C206.285 295.369 205.909 294.466 205.231 293.638C204.554 292.885 203.424 292.433 201.994 292.433C200.564 292.433 199.51 292.809 198.757 293.638C198.079 294.39 197.703 295.369 197.703 296.574C197.703 297.778 198.079 298.757 198.757 299.51C199.434 300.263 200.564 300.639 201.919 300.639" fill="#171919"/>
<path d="M250.78 294.993C248.446 293.863 245.51 293.336 242.122 293.336H228.646V334.669H235.949V321.418H242.198C245.586 321.418 248.522 320.891 250.856 319.762C253.19 318.633 254.996 317.052 256.276 315.019C257.481 312.986 258.159 310.577 258.159 307.791V306.888C258.159 304.102 257.556 301.693 256.276 299.66C255.072 297.628 253.265 296.047 250.856 294.917M249.802 303.35C250.404 304.479 250.705 305.834 250.705 307.34C250.705 308.845 250.404 310.125 249.802 311.255C249.2 312.384 248.371 313.287 247.242 313.965C246.113 314.643 244.682 314.944 243.026 314.944H236.024V299.736H243.026C244.757 299.736 246.188 300.037 247.242 300.714C248.371 301.317 249.2 302.22 249.802 303.35Z" fill="#171919"/>
<path d="M271.937 307.114C271.033 308.092 270.355 309.372 269.904 310.803V304.177H264.107V334.669H271.259V318.482C271.259 315.847 272.012 313.739 273.442 312.308C274.873 310.878 276.981 310.125 279.691 310.125H282.025V303.801H280.67C276.905 303.801 273.969 304.93 272.087 307.114" fill="#171919"/>
<path d="M292.037 300.639C293.467 300.639 294.597 300.263 295.274 299.51C295.952 298.757 296.328 297.778 296.328 296.574C296.328 295.369 295.952 294.466 295.274 293.638C294.597 292.885 293.467 292.433 292.037 292.433C290.607 292.433 289.553 292.809 288.8 293.638C288.122 294.39 287.746 295.369 287.746 296.574C287.746 297.778 288.122 298.757 288.8 299.51C289.477 300.263 290.606 300.639 291.962 300.639" fill="#171919"/>
<path d="M285.262 309.824H289.629V334.669H296.706V304.178H285.262V309.824Z" fill="#171919"/>
<path d="M333.52 307.791C332.24 306.361 330.734 305.232 329.003 304.479C327.271 303.726 325.314 303.274 323.13 303.274C320.797 303.274 318.689 303.801 316.806 304.78C315.225 305.608 313.945 306.813 312.891 308.394V293.638H305.739V334.744H311.536V329.549C312.666 331.507 314.171 333.013 316.054 334.067C318.011 335.196 320.27 335.723 322.754 335.723C324.937 335.723 326.97 335.271 328.852 334.443C330.659 333.615 332.24 332.486 333.52 330.98C334.8 329.549 335.779 327.818 336.456 325.936C337.134 324.053 337.435 322.021 337.435 319.837V318.708C337.435 316.525 337.134 314.492 336.456 312.61C335.779 310.728 334.8 309.071 333.595 307.641M330.358 319.235C330.358 321.193 329.982 322.999 329.229 324.505C328.476 326.011 327.497 327.215 326.142 328.044C324.862 328.872 323.281 329.324 321.55 329.324C320.044 329.324 318.538 328.947 317.183 328.269C315.828 327.592 314.698 326.613 313.87 325.333C313.042 324.053 312.59 322.472 312.59 320.666V318.256C312.59 316.374 312.967 314.718 313.795 313.438C314.623 312.083 315.677 311.104 317.032 310.351C318.387 309.674 319.893 309.297 321.399 309.297C323.13 309.297 324.712 309.674 325.991 310.502C327.271 311.33 328.325 312.459 329.078 313.965C329.831 315.471 330.207 317.202 330.207 319.235" fill="#171919"/>
<path d="M363.184 322.246C363.184 324.354 362.582 326.086 361.377 327.291C360.172 328.495 358.591 329.098 356.709 329.098C354.827 329.098 353.397 328.495 352.267 327.366C351.213 326.237 350.611 324.656 350.611 322.698V304.178H343.459V321.795C343.459 326.312 344.438 329.7 346.395 332.034C348.353 334.368 351.138 335.572 354.752 335.572H355.053C357.462 335.572 359.42 335.045 361.001 333.991C362.506 332.937 363.711 331.431 364.539 329.474V334.669H370.336V304.178H363.184V322.246Z" fill="#171919"/>
<path d="M420.026 304.93C418.445 303.801 416.412 303.274 414.003 303.274H413.701C411.368 303.274 409.335 303.801 407.754 304.93C406.173 305.985 404.968 307.641 404.215 309.674C403.462 307.641 402.258 306.06 400.677 304.93C399.096 303.801 397.063 303.274 394.729 303.274H394.428C392.094 303.274 390.061 303.801 388.48 304.93C386.975 305.985 385.77 307.566 385.017 309.523V304.178H379.22V334.669H386.372V316.675C386.372 314.492 386.975 312.836 388.104 311.631C389.233 310.426 390.739 309.824 392.696 309.824C394.654 309.824 395.934 310.426 396.912 311.556C397.891 312.685 398.418 314.341 398.418 316.449V334.744H405.571V316.751C405.571 314.567 406.173 312.911 407.227 311.706C408.356 310.502 409.862 309.899 411.744 309.899C413.626 309.899 414.981 310.502 416.035 311.631C417.089 312.76 417.616 314.417 417.616 316.525V334.819H424.769V317.503C424.769 314.492 424.392 311.932 423.564 309.899C422.736 307.791 421.531 306.21 419.95 305.081" fill="#171919"/>
<path d="M430.34 304.178V309.824H434.707V334.669H441.784V304.178H430.34Z" fill="#171919"/>
<path d="M437.115 300.639C438.546 300.639 439.675 300.263 440.353 299.51C441.03 298.757 441.407 297.778 441.407 296.574C441.407 295.369 441.03 294.466 440.353 293.638C439.675 292.885 438.546 292.433 437.115 292.433C435.685 292.433 434.631 292.809 433.878 293.638C433.2 294.39 432.824 295.369 432.824 296.574C432.824 297.778 433.2 298.757 433.878 299.51C434.555 300.263 435.685 300.639 437.04 300.639" fill="#171919"/>
<path d="M83.7188 355.072H107.057V358.836H83.7188V355.072ZM93.2801 358.008H97.4961V386.541H93.2801V358.008Z" fill="#171919"/>
<path d="M120.007 387.294C117.975 387.294 116.243 386.918 114.737 386.24C113.232 385.563 111.952 384.659 110.898 383.53C109.844 382.401 109.091 381.121 108.564 379.69C108.037 378.26 107.736 376.829 107.736 375.399V374.646C107.736 373.216 108.037 371.71 108.564 370.279C109.091 368.849 109.919 367.569 110.973 366.44C112.027 365.311 113.307 364.407 114.888 363.73C116.394 363.052 118.125 362.751 120.083 362.751C122.04 362.751 123.772 363.127 125.278 363.73C126.783 364.407 128.063 365.311 129.192 366.44C130.246 367.569 131.075 368.849 131.602 370.279C132.129 371.71 132.43 373.14 132.43 374.646V375.399C132.43 376.829 132.129 378.335 131.602 379.69C131.075 381.121 130.246 382.401 129.268 383.53C128.214 384.659 126.934 385.563 125.428 386.24C123.922 386.918 122.116 387.294 120.158 387.294M120.158 383.605C121.89 383.605 123.32 383.229 124.6 382.476C125.805 381.723 126.783 380.669 127.386 379.389C128.063 378.109 128.364 376.679 128.364 375.023C128.364 373.366 128.063 371.936 127.386 370.656C126.708 369.376 125.805 368.322 124.6 367.569C123.395 366.816 121.89 366.44 120.233 366.44C118.577 366.44 117.147 366.816 115.867 367.569C114.662 368.322 113.683 369.301 113.006 370.656C112.328 371.936 112.027 373.442 112.027 375.023C112.027 376.604 112.328 378.109 113.006 379.389C113.683 380.669 114.587 381.723 115.791 382.476C116.996 383.229 118.502 383.605 120.233 383.605" fill="#171919"/>
<path d="M146.508 387.219C143.798 387.219 141.69 386.316 140.184 384.509C138.753 382.702 138 380.142 138 376.829V363.504H142.141V377.658C142.141 379.464 142.593 380.895 143.572 381.874C144.55 382.928 145.906 383.379 147.562 383.379C149.218 383.379 150.724 382.852 151.778 381.723C152.907 380.594 153.434 379.088 153.434 377.206V363.428H157.575V386.466H154.262V376.604H154.789C154.789 378.862 154.488 380.82 153.886 382.325C153.284 383.906 152.38 385.111 151.176 385.939C149.971 386.767 148.465 387.144 146.658 387.144H146.508V387.219Z" fill="#171919"/>
<path d="M165.631 386.542V363.504H168.944V372.99H168.793C168.793 369.602 169.546 367.193 170.977 365.612C172.483 364.031 174.666 363.278 177.602 363.278H178.355V366.967H176.924C174.59 366.967 172.859 367.569 171.654 368.774C170.45 369.978 169.772 371.785 169.772 374.044V386.466H165.631V386.542Z" fill="#171919"/>
<path d="M201.618 387.294C199.435 387.294 197.477 386.842 195.821 386.014C194.165 385.186 192.885 384.057 191.906 382.626C191.003 381.196 190.551 379.615 190.551 377.808V377.13C190.551 375.098 191.153 373.216 192.282 371.635C193.412 370.053 194.918 368.774 196.649 367.795L198.832 370.656C197.553 371.258 196.574 372.237 195.746 373.441C194.993 374.646 194.541 376.001 194.541 377.507C194.541 378.862 194.842 379.991 195.52 380.895C196.197 381.798 197.025 382.476 198.079 383.003C199.133 383.455 200.338 383.68 201.618 383.68C203.651 383.68 205.382 383.078 206.813 381.949C208.243 380.819 209.373 379.163 210.201 376.905C210.954 374.646 211.405 371.936 211.405 368.623H215.094C215.094 371.484 214.793 374.044 214.191 376.378C213.589 378.636 212.76 380.594 211.556 382.25C210.427 383.831 208.996 385.111 207.34 385.939C205.684 386.767 203.726 387.219 201.618 387.219M212.309 386.466L199.359 372.613C198.004 371.183 197.026 369.903 196.273 368.924C195.52 367.87 194.993 366.891 194.692 365.988C194.391 365.085 194.24 364.106 194.24 363.052C194.24 361.17 194.616 359.664 195.294 358.384C195.971 357.179 197.101 356.201 198.607 355.598C200.112 354.996 202.07 354.695 204.479 354.695C205.458 354.695 206.512 354.695 207.641 354.846C208.846 354.921 209.9 354.996 210.803 355.147V358.76C210.201 358.76 209.448 358.61 208.544 358.535C207.641 358.535 206.737 358.384 205.834 358.384C204.931 358.384 204.178 358.384 203.651 358.384C201.618 358.384 200.188 358.76 199.359 359.589C198.531 360.417 198.155 361.621 198.155 363.202C198.155 364.482 198.456 365.612 199.058 366.666C199.661 367.72 200.564 368.924 201.844 370.279L217.127 386.541H212.233L212.309 386.466ZM206.436 365.913H217.729V369.225H206.436V365.913Z" fill="#171919"/>
<path d="M229.7 355.072H253.039V358.836H229.7V355.072ZM239.261 358.008H243.477V386.541H239.261V358.008Z" fill="#171919"/>
<path d="M256.879 386.542V363.504H260.191V372.99H260.041C260.041 369.602 260.794 367.193 262.224 365.612C263.73 364.031 265.913 363.278 268.849 363.278H269.602V366.967H268.172C265.838 366.967 264.106 367.569 262.902 368.774C261.697 369.978 261.02 371.785 261.02 374.044V386.466H256.879V386.542Z" fill="#171919"/>
<path d="M280.82 387.143C279.088 387.143 277.582 386.842 276.378 386.24C275.098 385.638 274.194 384.81 273.517 383.68C272.839 382.551 272.538 381.196 272.538 379.615C272.538 378.034 272.914 376.603 273.667 375.549C274.42 374.42 275.474 373.667 276.905 373.065C278.335 372.538 279.992 372.237 282.024 372.237H288.273V375.323H281.874C280.217 375.323 278.938 375.7 278.034 376.528C277.131 377.356 276.679 378.335 276.679 379.615C276.679 380.895 277.131 381.873 278.034 382.702C278.938 383.454 280.217 383.831 281.874 383.831C282.852 383.831 283.756 383.68 284.659 383.304C285.563 382.927 286.316 382.325 286.843 381.497C287.445 380.669 287.746 379.464 287.821 377.958L288.951 379.615C288.8 381.271 288.424 382.626 287.746 383.756C287.068 384.885 286.24 385.713 285.036 386.24C283.906 386.842 282.551 387.068 280.895 387.068M288.423 386.466V379.539H287.746V371.559C287.746 369.978 287.369 368.773 286.541 367.945C285.713 367.117 284.509 366.741 282.928 366.741C282.024 366.741 281.121 366.741 280.142 366.741C279.163 366.741 278.26 366.741 277.432 366.816C276.604 366.816 275.851 366.816 275.173 366.967V363.353C275.775 363.353 276.453 363.278 277.206 363.202C277.883 363.202 278.636 363.202 279.389 363.127C280.142 363.127 280.82 363.127 281.573 363.127C283.906 363.127 285.864 363.428 287.37 363.955C288.875 364.482 290.005 365.461 290.682 366.665C291.435 367.945 291.736 369.677 291.736 371.785V386.391H288.423V386.466Z" fill="#171919"/>
<path d="M304.083 386.542L296.253 363.504H300.545L308.224 386.542H304.083ZM305.137 383.229H310.106V386.542H305.137V383.229ZM307.094 386.542L313.795 363.504H317.86L311.085 386.542H307.17H307.094Z" fill="#171919"/>
<path d="M332.618 387.294C330.585 387.294 328.853 386.918 327.423 386.24C325.992 385.563 324.788 384.659 323.809 383.53C322.905 382.401 322.228 381.121 321.776 379.69C321.324 378.26 321.099 376.829 321.099 375.399V374.646C321.099 373.14 321.324 371.71 321.776 370.279C322.228 368.849 322.905 367.569 323.809 366.44C324.712 365.311 325.917 364.407 327.347 363.73C328.778 363.052 330.434 362.751 332.392 362.751C334.876 362.751 336.984 363.278 338.565 364.332C340.221 365.386 341.426 366.816 342.179 368.473C342.932 370.204 343.383 372.011 343.383 373.893V375.775H322.981V372.689H340.372L339.393 374.345C339.393 372.689 339.167 371.258 338.64 370.129C338.113 368.924 337.361 368.021 336.306 367.343C335.252 366.666 333.973 366.365 332.392 366.365C330.811 366.365 329.38 366.741 328.326 367.494C327.272 368.247 326.444 369.225 325.917 370.581C325.39 371.861 325.089 373.366 325.089 375.098C325.089 376.829 325.39 378.185 325.917 379.54C326.444 380.82 327.272 381.874 328.401 382.627C329.531 383.379 330.961 383.756 332.693 383.756C334.424 383.756 336.005 383.379 337.135 382.551C338.264 381.723 338.942 380.82 339.167 379.766H343.082C342.781 381.347 342.104 382.702 341.2 383.831C340.221 384.96 339.092 385.864 337.586 386.466C336.156 387.068 334.5 387.37 332.693 387.37" fill="#171919"/>
<path d="M346.244 355.072H353.547V358.384H346.244V355.072ZM349.406 355.072H353.547V386.541H349.406V355.072Z" fill="#171919"/>
<path d="M184.452 169.113V97.8165H159.834C156.973 97.8165 154.563 95.4826 154.563 92.5464V67.9276H124.675V97.8165H149.293C152.154 97.8165 154.563 100.15 154.563 103.087V139.224V163.843C154.563 166.704 152.23 169.113 149.293 169.113H124.675V199.002H154.563V174.383C154.563 171.522 156.897 169.113 159.834 169.113H184.452Z" fill="#FE4445"/>
<path d="M255.748 169.113V97.8165H280.367C283.228 97.8165 285.637 95.4826 285.637 92.5464V67.9276H315.526V97.8165H290.907C288.046 97.8165 285.637 100.15 285.637 103.087V139.224V163.843C285.637 166.704 287.971 169.113 290.907 169.113H315.526V199.002H285.637V174.383C285.637 171.522 283.303 169.113 280.367 169.113H255.748Z" fill="#FE4445"/>
<path d="M154.563 68.0029V38.1141H184.452V62.7329C184.452 65.5185 187.087 67.4006 189.723 66.8736L220.138 60.399L250.479 66.8736C253.114 67.4006 255.674 65.5185 255.749 62.8082V38.1141H285.563V68.0029H260.944C258.083 68.0029 255.749 70.3368 255.749 73.273V97.8918H247.091C240.541 90.2878 230.904 85.4695 220.063 85.4695C209.222 85.4695 199.585 90.2878 193.035 97.8918H184.452V73.273C184.452 70.3368 182.119 68.0029 179.182 68.0029H154.563Z" fill="#4AA580"/>
<path d="M285.563 199.002V228.891H255.674V204.272C255.674 201.486 253.039 199.604 250.404 200.131L219.988 206.606L189.647 200.131C187.012 199.604 184.453 201.486 184.377 204.197V228.891H154.563V199.002H179.182C182.043 199.002 184.377 196.668 184.377 193.732V169.113H193.035C199.585 176.717 209.222 181.535 220.063 181.535C230.904 181.535 240.541 176.717 247.091 169.113H255.674V193.732C255.674 196.668 258.008 199.002 260.944 199.002H285.563Z" fill="#4AA580"/>
<path d="M88.6872 137.191L108.864 153.98C110.671 155.486 113.231 155.486 115.038 153.98L135.215 137.191C137.549 135.234 137.549 131.695 135.215 129.813L115.038 113.024C113.231 111.518 110.671 111.518 108.864 113.024L88.6872 129.813C86.3533 131.771 86.3533 135.309 88.6872 137.191Z" fill="#FFBE2C"/>
<path d="M305.664 137.191L325.841 153.98C327.648 155.486 330.207 155.486 332.014 153.98L352.191 137.191C354.525 135.234 354.525 131.695 352.191 129.813L332.014 113.024C330.207 111.518 327.648 111.518 325.841 113.024L305.664 129.813C303.33 131.771 303.33 135.309 305.664 137.191Z" fill="#FFBE2C"/>
<path d="M216.374 1.75042L199.585 21.9273C198.079 23.7342 198.079 26.2939 199.585 28.1008L216.374 48.2777C218.331 50.6116 221.869 50.6116 223.752 48.2777L240.541 28.1008C242.046 26.2939 242.046 23.7342 240.541 21.9273L223.752 1.75042C221.794 -0.583473 218.256 -0.583473 216.374 1.75042Z" fill="#FFBE2C"/>
<path d="M216.374 218.727L199.585 238.904C198.079 240.711 198.079 243.271 199.585 245.078L216.374 265.255C218.331 267.588 221.869 267.588 223.752 265.255L240.541 245.078C242.046 243.271 242.046 240.711 240.541 238.904L223.752 218.727C221.794 216.393 218.256 216.393 216.374 218.727Z" fill="#FFBE2C"/>
</svg>
